<svg xmlns="http://www.w3.org/2000/svg" width="48" height="48" viewBox="0 0 24 24" role="img" aria-label="ForceLens">
  <defs>
    <linearGradient id="sg48" x1="0" y1="0" x2="24" y2="24" gradientUnits="userSpaceOnUse">
      <stop offset="0" stop-color="#00CFFF"/>
      <stop offset="1" stop-color="#6366F1"/>
    </linearGradient>
  </defs>
  <path fill="url(#sg48)" d="M14.90 12.28L15.19 13.28L15.37 14.01L15.44 14.72L15.42 15.42L15.31 16.11L15.11 16.78L14.83 17.43L14.46 18.05L14.01 18.63L13.50 19.16L12.92 19.64L12.29 20.07L11.60 20.43L10.87 20.74L10.10 20.98L9.30 21.15L8.47 21.25L7.64 21.30L6.83 21.30L6.26 21.39L6.74 21.67L8.55 22.06L10.06 22.08L11.46 21.89L12.74 21.51L13.90 20.98L14.93 20.31L15.80 19.54L16.51 18.69L17.06 17.80L17.45 16.88L17.68 15.96L17.76 15.08L17.70 14.24L17.51 13.48L17.22 12.81L16.83 12.25L16.38 11.82L15.89 11.53L15.38 11.41L14.90 11.72Z M12.63 14.84L11.77 15.43L11.13 15.82L10.47 16.12L9.80 16.31L9.11 16.42L8.41 16.44L7.71 16.37L7.01 16.21L6.32 15.96L5.66 15.64L5.02 15.24L4.42 14.76L3.86 14.22L3.34 13.62L2.88 12.96L2.46 12.25L2.11 11.51L1.81 10.73L1.56 9.96L1.30 9.44L1.18 9.99L1.37 11.82L1.81 13.27L2.43 14.54L3.19 15.65L4.05 16.58L5.00 17.35L6.00 17.94L7.03 18.36L8.05 18.60L9.04 18.69L9.99 18.63L10.85 18.43L11.63 18.11L12.29 17.70L12.84 17.21L13.25 16.68L13.53 16.12L13.65 15.56L13.60 15.04L13.16 14.67Z M9.49 13.48L8.67 12.84L8.09 12.35L7.62 11.82L7.22 11.24L6.90 10.62L6.67 9.96L6.52 9.27L6.46 8.55L6.48 7.82L6.58 7.09L6.76 6.36L7.03 5.64L7.37 4.94L7.78 4.27L8.27 3.62L8.81 3.01L9.41 2.44L10.06 1.92L10.71 1.44L11.13 1.03L10.57 1.09L8.88 1.83L7.64 2.70L6.63 3.68L5.81 4.74L5.18 5.86L4.75 7.00L4.50 8.13L4.42 9.24L4.50 10.28L4.72 11.26L5.08 12.13L5.53 12.90L6.07 13.53L6.67 14.04L7.30 14.41L7.94 14.64L8.56 14.72L9.13 14.67L9.61 14.46L9.82 13.93Z M9.82 10.07L10.17 9.09L10.46 8.39L10.82 7.77L11.24 7.22L11.74 6.73L12.29 6.30L12.91 5.94L13.57 5.66L14.27 5.46L14.99 5.33L15.74 5.28L16.51 5.31L17.28 5.41L18.05 5.60L18.82 5.86L19.57 6.19L20.29 6.59L20.99 7.04L21.64 7.51L22.16 7.78L21.94 7.27L20.71 5.89L19.50 4.98L18.25 4.32L16.99 3.87L15.73 3.62L14.52 3.56L13.36 3.67L12.29 3.93L11.31 4.33L10.46 4.85L9.73 5.46L9.15 6.13L8.71 6.84L8.41 7.56L8.26 8.28L8.24 8.95L8.35 9.57L8.57 10.09L8.92 10.48L9.49 10.52Z M13.16 9.33L14.20 9.36L14.95 9.42L15.65 9.57L16.31 9.80L16.93 10.12L17.51 10.52L18.04 10.99L18.51 11.53L18.92 12.13L19.27 12.79L19.55 13.48L19.76 14.22L19.90 14.99L19.96 15.78L19.95 16.58L19.86 17.40L19.71 18.21L19.50 19.02L19.25 19.79L19.15 20.36L19.57 19.99L20.50 18.39L20.99 16.96L21.24 15.57L21.27 14.23L21.12 12.96L20.81 11.79L20.34 10.72L19.76 9.78L19.08 8.98L18.32 8.32L17.52 7.82L16.71 7.47L15.89 7.27L15.11 7.22L14.39 7.29L13.74 7.48L13.18 7.77L12.76 8.15L12.49 8.60L12.63 9.16Z"/>
</svg>
